<svg xmlns="http://www.w3.org/2000/svg" width="46.045" height="48"><defs><clipPath><path d="M0 2221h1709v-2221h-1709v2221z"/></clipPath></defs><g fill="#a9a9a9"><path d="M23.681 28.13c-4.151 0-7.803-2.726-9.93-6.852h19.861c-2.128 4.126-5.777 6.852-9.93 6.852m-.679-24.954c-7.691 0-13.925 6.234-13.925 13.926 0 7.694 6.234 13.927 13.925 13.927 7.694 0 13.927-6.233 13.927-13.927 0-7.692-6.234-13.926-13.927-13.926M31.407 32.834c-2.505 1.342-5.367 2.108-8.405 2.108-3.035 0-5.896-.765-8.4-2.108-5.411 1.422-9.652 4.79-11.594 12.034h39.995c-1.944-7.245-6.182-10.614-11.596-12.034"/></g></svg>