<svg xmlns="http://www.w3.org/2000/svg" width="46.045" height="48"><defs><clipPath><path d="m0 2221h1709v-2221h-1709v2221z"/></clipPath></defs><g fill="#a9a9a9" transform="translate(-252.692 -452.648) matrix(.722 0 0 -.722 132.53 656.809)"><path d="m199.228 243.81c-5.749 0-10.807 3.775-13.754 9.49h27.508c-2.947-5.715-8.002-9.49-13.754-9.49m-.94 34.563c-10.653 0-19.287-8.634-19.287-19.288 0-10.656 8.634-19.289 19.287-19.289 10.656 0 19.29 8.633 19.29 19.289 0 10.654-8.634 19.288-19.29 19.288" fill="#a9a9a9"/><path d="m209.929 237.295c-3.469-1.859-7.433-2.92-11.641-2.92-4.204 0-8.166 1.059-11.635 2.92-7.494-1.969-13.368-6.635-16.058-16.668h55.395c-2.692 10.035-8.563 14.701-16.061 16.668" fill="#a9a9a9"/></g></svg>