<?xml version="1.0" encoding="UTF-8" standalone="no"?>
<!-- Created with Inkscape (http://www.inkscape.org/) -->

<svg
   xmlns:dc="http://purl.org/dc/elements/1.1/"
   xmlns:cc="http://creativecommons.org/ns#"
   xmlns:rdf="http://www.w3.org/1999/02/22-rdf-syntax-ns#"
   xmlns:svg="http://www.w3.org/2000/svg"
   xmlns="http://www.w3.org/2000/svg"
   xmlns:sodipodi="http://sodipodi.sourceforge.net/DTD/sodipodi-0.dtd"
   xmlns:inkscape="http://www.inkscape.org/namespaces/inkscape"
   width="46.045307"
   height="48"
   id="svg3651"
   version="1.1"
   inkscape:version="0.48.3.1 r9886"
   sodipodi:docname="logo.svg">
  <defs
     id="defs3653">
    <clipPath
       clipPathUnits="userSpaceOnUse"
       id="clipPath540">
      <path
         inkscape:connector-curvature="0"
         d="m 0,2221 1709,0 L 1709,0 0,0 0,2221 z"
         id="path542" />
    </clipPath>
  </defs>
  <sodipodi:namedview
     id="base"
     pagecolor="#ffffff"
     bordercolor="#666666"
     borderopacity="1.0"
     inkscape:pageopacity="0.0"
     inkscape:pageshadow="2"
     inkscape:zoom="1.4"
     inkscape:cx="-175.5745"
     inkscape:cy="69.673975"
     inkscape:document-units="px"
     inkscape:current-layer="layer1"
     showgrid="false"
     inkscape:window-width="1920"
     inkscape:window-height="1056"
     inkscape:window-x="1680"
     inkscape:window-y="24"
     inkscape:window-maximized="1"
     fit-margin-top="0"
     fit-margin-left="0"
     fit-margin-right="0"
     fit-margin-bottom="0" />
  <metadata
     id="metadata3656">
    <rdf:RDF>
      <cc:Work
         rdf:about="">
        <dc:format>image/svg+xml</dc:format>
        <dc:type
           rdf:resource="http://purl.org/dc/dcmitype/StillImage" />
        <dc:title />
      </cc:Work>
    </rdf:RDF>
  </metadata>
  <g
     inkscape:label="Layer 1"
     inkscape:groupmode="layer"
     id="layer1"
     transform="translate(-252.69164,-452.64789)">
    <g
       transform="matrix(0.72208683,0,0,-0.72208683,132.5301,656.8087)"
       id="g536"
       style="fill:#a9a9a9;fill-opacity:1">
      <g
         id="g538"
         clip-path="url(#clipPath540)"
         style="fill:#a9a9a9;fill-opacity:1">
        <g
           id="g544"
           transform="translate(199.2285,243.8105)"
           style="fill:#a9a9a9;fill-opacity:1">
          <path
             inkscape:connector-curvature="0"
             d="m 0,0 c -5.749,0 -10.807,3.775 -13.754,9.49 l 27.508,0 C 10.807,3.775 5.752,0 0,0 m -0.94,34.563 c -10.653,0 -19.287,-8.634 -19.287,-19.288 0,-10.656 8.634,-19.289 19.287,-19.289 10.656,0 19.29,8.633 19.29,19.289 0,10.654 -8.634,19.288 -19.29,19.288"
             style="fill:#a9a9a9;fill-opacity:1;fill-rule:nonzero;stroke:none"
             id="path546" />
        </g>
        <g
           id="g548"
           transform="translate(209.9287,237.2949)"
           style="fill:#a9a9a9;fill-opacity:1">
          <path
             inkscape:connector-curvature="0"
             d="m 0,0 c -3.469,-1.859 -7.433,-2.92 -11.641,-2.92 -4.204,0 -8.166,1.059 -11.635,2.92 -7.494,-1.969 -13.368,-6.635 -16.058,-16.668 l 55.395,0 C 13.369,-6.633 7.498,-1.967 0,0"
             style="fill:#a9a9a9;fill-opacity:1;fill-rule:nonzero;stroke:none"
             id="path550" />
        </g>
      </g>
    </g>
  </g>
</svg>
